<svg width="50" height="50" id="Layer_1" data-name="Layer 1" xmlns="http://www.w3.org/2000/svg" viewBox="0 0 164.7 160.98"><defs><style>.cls-1{fill:#5b539f;}.cls-1,.cls-2,.cls-3,.cls-4,.cls-5,.cls-6{fill-rule:evenodd;}.cls-2{fill:#542e7b;}.cls-3{fill:#2b4c90;}.cls-4{fill:#76358a;}.cls-5{fill:#196db5;}.cls-6{fill:#2b2f69;}</style></defs><path id="Fill-352" class="cls-1" d="M149.23,101.64a3.58,3.58,0,0,1-4.29,1.66c-3.18-1-6.23-1.94-9.27-2.77s-6.23-1.8-9.27-2.49c-6.23-1.52-12.46-3.05-18.69-4.15h0a5.5,5.5,0,0,1-4.43-6.37,8.28,8.28,0,0,1,.55-1.66,153.5,153.5,0,0,1,9.83-15.36,156.25,156.25,0,0,1,11.21-14,3.73,3.73,0,0,1,5.26-.28,3.83,3.83,0,0,1,.83,4.43h0c-2.77,5.26-5.68,10.24-8.72,15.36l-4.42,7.47c-.15.28-.42.69-.55,1a122.39,122.39,0,0,1,12.18,3.6c3.17,1.11,6.37,2.35,9.4,3.74s6.23,2.91,9.14,4.57a4,4,0,0,1,1.25,5.26" transform="translate(-8.92 -3.79)"></path><path id="Fill-354" class="cls-2" d="M76.43,93.33a7.18,7.18,0,0,1-1.66.55h0Q65.43,95.54,56.08,98c-3,.83-6.23,1.66-9.27,2.49s-6.09,1.8-9.27,2.77h0A3.71,3.71,0,0,1,33,100.8a4,4,0,0,1,1.66-4.29c2.91-1.66,5.95-3.18,9-4.57S49.86,89.31,53,88.2a124.3,124.3,0,0,1,12.18-3.6c-.14-.28-.42-.69-.55-1l-4.43-7.47q-4.58-7.47-8.72-15.36h0a3.67,3.67,0,0,1,1.52-5,3.59,3.59,0,0,1,4.43.83,156.25,156.25,0,0,1,11.21,14A154.65,154.65,0,0,1,78.51,86a5.24,5.24,0,0,1-2.08,7.34" transform="translate(-8.92 -3.79)"></path><path id="Fill-356" class="cls-3" d="M114.91,162.4a3.76,3.76,0,0,1-4.43-1.52h0c-2.08-3.32-4-6.78-6.09-10.24L98.58,140.4l-5.81-10.24c-.42-.83-1-1.52-1.38-2.35-.42.83-1,1.52-1.38,2.35L84.2,140.4l-6,10.24c-2.08,3.32-4,6.78-6.09,10.1h0a3.74,3.74,0,0,1-6.64-3.32c1.38-3.74,2.91-7.34,4.57-11.07s3.32-7.2,5-10.8,3.6-7.2,5.54-10.66,3.88-7.06,6.23-10.52v-.14a5.37,5.37,0,0,1,7.47-1.52,8.1,8.1,0,0,1,1.52,1.52c2.35,3.6,4.29,7.06,6.23,10.66s3.74,7.06,5.4,10.66,3.46,7.2,5,10.8,3.18,7.34,4.71,11.07a3.85,3.85,0,0,1-2.21,5" transform="translate(-8.92 -3.79)"></path><path id="Fill-358" class="cls-4" d="M87.5,40.32A42.8,42.8,0,0,1,86,31.88a83.7,83.7,0,0,1-.28-8.44A76.56,76.56,0,0,1,87.64,6.69a3.7,3.7,0,0,1,4.57-2.77A4,4,0,0,1,95,6.69a77,77,0,0,1,1.8,16.75c0,2.77-.14,5.54-.28,8.44A47.38,47.38,0,0,1,95,40.32a3.72,3.72,0,0,1-4.84,2.49,3.48,3.48,0,0,1-2.63-2.49" transform="translate(-8.92 -3.79)"></path><path id="Fill-360" class="cls-5" d="M162.52,126.55a4.28,4.28,0,0,1-5,1.8h0c-4-1.38-7.89-2.91-11.9-4.15s-8-2.49-12-3.74-7.75-2.08-11.63-2.91c2.63,4.71,5.26,9.41,8,14.26,2.49,4.29,4.84,8.72,7.2,13.29s4.57,9,6.37,13.7a4.23,4.23,0,0,1-2.21,5.54,4.29,4.29,0,0,1-5.12-1.52L120.05,138a243.43,243.43,0,0,1-15.23-26.16h0a6.23,6.23,0,0,1,6.65-9,151.6,151.6,0,0,1,25.88,6.78c4.16,1.52,8.3,3.18,12.32,5.12s7.9,3.88,11.78,6.23c1.65.83,2.34,3.46,1.1,5.54" transform="translate(-8.92 -3.79)"></path><path id="Fill-362" class="cls-6" d="M77.81,111.6h0a256.91,256.91,0,0,1-15.23,26.3L46.52,162.81a4.23,4.23,0,0,1-7.47-3.87c1.94-4.71,4.16-9.27,6.37-13.84s4.72-8.86,7.2-13.29c2.64-4.84,5.41-9.55,7.9-14.26-3.88,1-7.75,1.94-11.63,3s-8,2.35-12,3.74-8,2.77-11.9,4.15h0a4.27,4.27,0,0,1-5.4-2.49,4.16,4.16,0,0,1,1.8-5,119.91,119.91,0,0,1,11.77-6.23c4-1.8,8.17-3.6,12.31-5.12a161.49,161.49,0,0,1,25.89-6.92,6.26,6.26,0,0,1,7.2,5.12,8.62,8.62,0,0,1-.69,3.74" transform="translate(-8.92 -3.79)"></path><path id="Fill-364" class="cls-5" d="M148.27,134.44a46.23,46.23,0,0,1,7.47,4.84,52.77,52.77,0,0,1,6.51,5.95,67.66,67.66,0,0,1,10.93,14,3.76,3.76,0,0,1-5.53,4.84h0a111.64,111.64,0,0,1-13-11.07c-2.08-1.94-4-4-5.95-6.09a50.08,50.08,0,0,1-5.26-6.92h0a3.82,3.82,0,0,1,1.25-5.26,3.42,3.42,0,0,1,3.6-.28" transform="translate(-8.92 -3.79)"></path><path id="Fill-366" class="cls-6" d="M39.06,139.7a43.34,43.34,0,0,1-5.26,6.92c-1.94,2.08-3.88,4.15-5.95,6.23a123.36,123.36,0,0,1-13,11.07h0a3.68,3.68,0,0,1-5.26-1,4.17,4.17,0,0,1-.28-4c2.91-5.4,6.78-9.83,10.8-14.12,2.08-2.08,4.29-4,6.51-5.95A46,46,0,0,1,34.08,134a3.84,3.84,0,0,1,5.12,1.66,4.1,4.1,0,0,1-.14,4Z" transform="translate(-8.92 -3.79)"></path><path id="Fill-368" class="cls-4" d="M121.41,36.44c-3.6,7.61-7.61,15.09-11.77,22.28-4.15,7.34-8.44,14.53-13,21.59h0a6.46,6.46,0,0,1-5.26,2.91h0a6.44,6.44,0,0,1-5.26-2.91c-4.43-7.2-8.72-14.4-12.87-21.73-2.08-3.6-4.15-7.34-6.09-11.07s-4-7.47-5.81-11.21a4.35,4.35,0,0,1,1.94-5.68,4.06,4.06,0,0,1,5.12,1.25c2.63,3.32,5,6.78,7.47,10.24s4.84,6.92,7.2,10.38c2.77,4.15,5.54,8.44,8.3,12.73,2.77-4.29,5.54-8.58,8.3-12.73,4.71-7.06,9.55-13.84,14.81-20.49a4.19,4.19,0,0,1,6-.69,4.94,4.94,0,0,1,1,5.12" transform="translate(-8.92 -3.79)"></path></svg>