<svg width="26" height="26" viewBox="0 0 26 26" fill="none" xmlns="http://www.w3.org/2000/svg">
<path d="M12.8646 0C10.3202 0 7.83298 0.754495 5.71741 2.16807C3.60184 3.58165 1.95295 5.59082 0.979264 7.94152C0.00557402 10.2922 -0.249188 12.8789 0.247195 15.3743C0.743578 17.8698 1.96881 20.1621 3.76795 21.9612C5.5671 23.7604 7.85935 24.9856 10.3548 25.482C12.8503 25.9784 15.437 25.7236 17.7877 24.7499C20.1383 23.7762 22.1475 22.1273 23.5611 20.0118C24.9747 17.8962 25.7292 15.409 25.7292 12.8646C25.7256 9.45379 24.369 6.18372 21.9572 3.77193C19.5454 1.36013 16.2754 0.00360186 12.8646 0ZM18.5126 10.596L11.5856 17.523C11.4936 17.6151 11.3845 17.688 11.2644 17.7378C11.1442 17.7876 11.0155 17.8133 10.8854 17.8133C10.7554 17.8133 10.6266 17.7876 10.5065 17.7378C10.3863 17.688 10.2772 17.6151 10.1853 17.523L7.21654 14.5543C7.03086 14.3686 6.92654 14.1168 6.92654 13.8542C6.92654 13.5916 7.03086 13.3397 7.21654 13.154C7.40223 12.9683 7.65407 12.864 7.91667 12.864C8.17927 12.864 8.43112 12.9683 8.6168 13.154L10.8854 15.4239L17.1124 9.1957C17.2043 9.10376 17.3135 9.03083 17.4336 8.98107C17.5537 8.93131 17.6825 8.9057 17.8125 8.9057C17.9425 8.9057 18.0713 8.93131 18.1914 8.98107C18.3115 9.03083 18.4207 9.10376 18.5126 9.1957C18.6046 9.28765 18.6775 9.3968 18.7273 9.51692C18.777 9.63705 18.8026 9.76581 18.8026 9.89583C18.8026 10.0259 18.777 10.1546 18.7273 10.2747C18.6775 10.3949 18.6046 10.504 18.5126 10.596Z" fill="#01AB31"/>
</svg>
