<svg width="20" height="20" viewBox="0 0 12 11" fill="none" xmlns="http://www.w3.org/2000/svg">
<path d="M10.9922 0C11.0102 0 11.0283 0 11.0469 0C11.0469 3.465 11.0469 6.93 11.0469 10.5C7.40141 10.5 3.75594 10.5 0 10.5C0 10.482 0 10.4639 0 10.4453C0.101302 10.4273 0.101302 10.4273 0.204651 10.409C2.13363 10.0539 3.78881 9.15891 5.30469 7.92969C5.33817 7.90261 5.37166 7.87553 5.40616 7.84763C5.86842 7.46972 6.29614 7.05816 6.71973 6.6377C6.76719 6.59075 6.81465 6.5438 6.86355 6.49542C7.18733 6.17003 7.47897 5.82693 7.76562 5.46875C7.81349 5.41192 7.86162 5.35531 7.91025 5.29913C8.76263 4.30699 9.49385 3.1771 10.0528 1.995C10.1329 1.82635 10.2144 1.65842 10.296 1.49045C10.6588 0.751958 10.6588 0.751958 10.9922 0Z" fill="#ECCF9C"/>
</svg>
