<svg width="697" height="261" viewBox="0 0 697 261" fill="none" xmlns="http://www.w3.org/2000/svg">
<g clip-path="url(#clip0_0_1)">
<g clip-path="url(#clip1_0_1)">
<g clip-path="url(#clip2_0_1)">
<g opacity="0.55">
<path d="M90.535 213.595C90.535 188.595 70.268 168.328 45.2675 168.328C20.2669 168.328 0 188.595 0 213.595C0 238.596 20.2669 258.863 45.2675 258.863C70.268 258.863 90.535 238.596 90.535 213.595Z" fill="url(#paint0_linear_0_1)"/>
<path d="M37.2186 198.506H23.1354C18.6909 198.506 15.0879 202.109 15.0879 206.554V220.637C15.0879 225.082 18.6909 228.685 23.1354 228.685H37.2186C41.6632 228.685 45.2662 225.082 45.2662 220.637V206.554C45.2662 202.109 41.6632 198.506 37.2186 198.506Z" fill="white" fill-opacity="0.5"/>
<path d="M67.3983 198.506H53.3151C48.8706 198.506 45.2676 202.109 45.2676 206.554V220.637C45.2676 225.082 48.8706 228.685 53.3151 228.685H67.3983C71.8429 228.685 75.4459 225.082 75.4459 220.637V206.554C75.4459 202.109 71.8429 198.506 67.3983 198.506Z" fill="white"/>
</g>
</g>
</g>
</g>
<g clip-path="url(#clip3_0_1)">
<g clip-path="url(#clip4_0_1)">
<g clip-path="url(#clip5_0_1)">
<path d="M318.569 135.666C318.569 67.2486 263.106 11.7856 194.689 11.7856C126.272 11.7856 70.8086 67.2486 70.8086 135.666C70.8086 204.083 126.272 259.546 194.689 259.546C263.106 259.546 318.569 204.083 318.569 135.666Z" fill="url(#paint1_linear_0_1)"/>
<path d="M178.173 97.125H134.127C125.004 97.125 117.609 104.52 117.609 113.642V157.689C117.609 166.811 125.004 174.206 134.127 174.206H178.173C187.295 174.206 194.69 166.811 194.69 157.689V113.642C194.69 104.52 187.295 97.125 178.173 97.125Z" fill="white"/>
<path d="M233.232 174.206C254.517 174.206 271.772 156.951 271.772 135.665C271.772 114.38 254.517 97.125 233.232 97.125C211.947 97.125 194.691 114.38 194.691 135.665C194.691 156.951 211.947 174.206 233.232 174.206Z" fill="white"/>
</g>
</g>
</g>
<g clip-path="url(#clip6_0_1)">
<g clip-path="url(#clip7_0_1)">
<g clip-path="url(#clip8_0_1)">
<path d="M389.445 213.595C389.445 188.595 369.178 168.328 344.178 168.328C319.177 168.328 298.91 188.595 298.91 213.595C298.91 238.596 319.177 258.863 344.178 258.863C369.178 258.863 389.445 238.596 389.445 213.595Z" fill="url(#paint2_linear_0_1)"/>
<path d="M339.267 190.273C341.675 186.91 346.675 186.91 349.083 190.273L356.183 200.192C356.568 200.73 357.04 201.202 357.578 201.587L367.497 208.687C370.86 211.095 370.86 216.096 367.497 218.503L357.578 225.604C357.04 225.989 356.568 226.46 356.183 226.998L349.083 236.918C346.675 240.281 341.675 240.281 339.267 236.918L332.166 226.998C331.781 226.46 331.31 225.989 330.772 225.604L320.853 218.503C317.489 216.096 317.489 211.095 320.853 208.687L330.772 201.587C331.31 201.202 331.781 200.73 332.166 200.192L339.267 190.273Z" fill="white"/>
</g>
</g>
</g>
<g clip-path="url(#clip9_0_1)">
<g clip-path="url(#clip10_0_1)">
<g clip-path="url(#clip11_0_1)">
<g opacity="0.55">
<path d="M382.927 136.137C382.927 118.359 368.515 103.947 350.737 103.947C332.959 103.947 318.547 118.359 318.547 136.137C318.547 153.916 332.959 168.328 350.737 168.328C368.515 168.328 382.927 153.916 382.927 136.137Z" fill="url(#paint3_linear_0_1)"/>
<path d="M349.407 118.052C349.883 116.844 351.592 116.844 352.068 118.052L356.579 129.489C356.725 129.858 357.017 130.15 357.385 130.296L368.823 134.806C370.031 135.283 370.031 136.992 368.823 137.468L357.385 141.979C357.017 142.125 356.725 142.417 356.579 142.785L352.068 154.223C351.592 155.431 349.883 155.431 349.407 154.223L344.896 142.785C344.75 142.417 344.458 142.125 344.09 141.979L332.652 137.468C331.444 136.992 331.444 135.283 332.652 134.806L344.09 130.296C344.458 130.15 344.75 129.858 344.896 129.489L349.407 118.052Z" fill="white"/>
</g>
</g>
</g>
</g>
<g clip-path="url(#clip12_0_1)">
<g clip-path="url(#clip13_0_1)">
<g clip-path="url(#clip14_0_1)">
<path d="M473.946 73.7692H473.945C422.833 73.7692 381.398 115.204 381.398 166.316V166.316C381.398 217.429 422.833 258.863 473.945 258.863H473.946C525.058 258.863 566.493 217.429 566.493 166.316V166.316C566.493 115.204 525.058 73.7692 473.946 73.7692Z" fill="url(#paint4_linear_0_1)"/>
<path d="M510.964 147.807C510.964 142.945 510.006 138.131 508.145 133.64C506.284 129.149 503.558 125.068 500.121 121.63C496.683 118.193 492.602 115.466 488.111 113.606C483.62 111.745 478.806 110.788 473.944 110.788C469.083 110.788 464.269 111.745 459.778 113.606C455.287 115.466 451.206 118.193 447.768 121.63C444.331 125.068 441.604 129.149 439.744 133.64C437.883 138.131 436.926 142.945 436.926 147.807H473.944H510.964Z" fill="white" fill-opacity="0.5"/>
<path d="M510.964 184.825C510.964 205.271 494.389 221.845 473.944 221.845C453.5 221.845 436.926 205.271 436.926 184.825C436.926 164.381 453.5 147.807 473.944 147.807C494.389 147.807 510.964 164.381 510.964 184.825Z" fill="white"/>
</g>
</g>
</g>
<g clip-path="url(#clip15_0_1)">
<g clip-path="url(#clip16_0_1)">
<g clip-path="url(#clip17_0_1)">
<g opacity="0.55">
<path d="M584.988 45.2651C584.988 20.2645 564.721 -0.00244141 539.721 -0.00244141C514.72 -0.00244141 494.453 20.2645 494.453 45.2651C494.453 70.2656 514.72 90.5325 539.721 90.5325C564.721 90.5325 584.988 70.2656 584.988 45.2651Z" fill="url(#paint5_linear_0_1)"/>
<path d="M533.304 24.9956C535.241 18.6649 544.203 18.6649 546.14 24.9956C547.172 28.3653 550.633 30.3638 554.067 29.5719C560.518 28.0843 564.999 35.8456 560.485 40.6885C558.082 43.2664 558.082 47.2634 560.485 49.8413C564.999 54.6842 560.518 62.4456 554.067 60.9579C550.633 60.166 547.172 62.1645 546.14 65.5343C544.203 71.8649 535.241 71.8649 533.304 65.5343C532.273 62.1645 528.811 60.166 525.377 60.9579C518.926 62.4456 514.445 54.6842 518.959 49.8413C521.362 47.2634 521.362 43.2664 518.959 40.6885C514.445 35.8456 518.926 28.0843 525.377 29.5719C528.811 30.3638 532.273 28.3653 533.304 24.9956Z" fill="white"/>
</g>
</g>
</g>
</g>
<g clip-path="url(#clip18_0_1)">
<g clip-path="url(#clip19_0_1)">
<g clip-path="url(#clip20_0_1)">
<path d="M616.019 107.971C616.019 90.1928 601.607 75.7808 583.829 75.7808C566.051 75.7808 551.639 90.1928 551.639 107.971C551.639 125.749 566.051 140.161 583.829 140.161C601.607 140.161 616.019 125.749 616.019 107.971Z" fill="url(#paint6_linear_0_1)"/>
<path d="M600.282 107.971C600.282 105.81 599.857 103.671 599.03 101.675C598.203 99.6784 596.991 97.8646 595.464 96.3369C593.936 94.8091 592.122 93.5973 590.126 92.7704C588.13 91.9435 585.99 91.5181 583.83 91.5181C581.669 91.5181 579.53 91.9435 577.533 92.7704C575.537 93.5973 573.724 94.8091 572.196 96.3369C570.668 97.8648 569.456 99.6784 568.629 101.675C567.803 103.671 567.377 105.81 567.377 107.971H583.83H600.282Z" fill="white"/>
</g>
</g>
</g>
<g clip-path="url(#clip21_0_1)">
<g clip-path="url(#clip22_0_1)">
<path d="M628.379 129.335H628.379C592.822 129.335 563.998 158.159 563.998 193.716V193.716C563.998 229.272 592.822 258.097 628.379 258.097H628.379C663.935 258.097 692.759 229.272 692.759 193.716V193.716C692.759 158.159 663.935 129.335 628.379 129.335Z" fill="url(#paint7_linear_0_1)"/>
<path fill-rule="evenodd" clip-rule="evenodd" d="M599.766 171.212C599.766 167.838 602.501 165.102 605.876 165.102C634.107 165.102 656.993 187.928 656.993 216.086C656.993 219.534 654.198 222.329 650.75 222.329H634.92C631.472 222.329 628.677 219.534 628.677 216.086C628.677 203.526 618.469 193.344 605.876 193.344C602.501 193.344 599.766 190.608 599.766 187.234V171.212Z" fill="white"/>
</g>
</g>
<g clip-path="url(#clip23_0_1)">
<g clip-path="url(#clip24_0_1)">
<g clip-path="url(#clip25_0_1)">
<g opacity="0.55">
<path d="M696.221 91.2853C696.221 68.586 677.82 50.1846 655.12 50.1846C632.421 50.1846 614.02 68.586 614.02 91.2853C614.02 113.985 632.421 132.386 655.12 132.386C677.82 132.386 696.221 113.985 696.221 91.2853Z" fill="url(#paint8_linear_0_1)"/>
<path d="M651.957 72.1048C653.363 69.6692 656.879 69.6692 658.285 72.1048L673.314 98.1353C674.72 100.571 672.962 103.615 670.15 103.615H640.092C637.28 103.615 635.522 100.571 636.928 98.1353L651.957 72.1048Z" fill="white"/>
</g>
</g>
</g>
</g>
<defs>
<linearGradient id="paint0_linear_0_1" x1="90.535" y1="258.863" x2="0" y2="168.328" gradientUnits="userSpaceOnUse">
<stop stop-color="#DEA835"/>
<stop offset="0.265" stop-color="#E89E37"/>
<stop offset="1" stop-color="#F84C3C"/>
</linearGradient>
<linearGradient id="paint1_linear_0_1" x1="260.758" y1="237.523" x2="70.8086" y2="11.7856" gradientUnits="userSpaceOnUse">
<stop stop-color="#35DECA"/>
<stop offset="0.265" stop-color="#0015FF"/>
<stop offset="1" stop-color="#00050F"/>
</linearGradient>
<linearGradient id="paint2_linear_0_1" x1="368.32" y1="250.815" x2="298.91" y2="168.328" gradientUnits="userSpaceOnUse">
<stop stop-color="#00C4A3"/>
<stop offset="0.265" stop-color="#10633A"/>
<stop offset="1" stop-color="#067914"/>
</linearGradient>
<linearGradient id="paint3_linear_0_1" x1="367.905" y1="162.605" x2="318.547" y2="103.947" gradientUnits="userSpaceOnUse">
<stop stop-color="#7335DE"/>
<stop offset="0.265" stop-color="#E837BC"/>
<stop offset="1" stop-color="#F83C3F"/>
</linearGradient>
<linearGradient id="paint4_linear_0_1" x1="539.756" y1="236.241" x2="381.398" y2="73.7692" gradientUnits="userSpaceOnUse">
<stop stop-color="#006703"/>
<stop offset="0.572622" stop-color="#6FE837"/>
<stop offset="1" stop-color="#12B796"/>
</linearGradient>
<linearGradient id="paint5_linear_0_1" x1="563.863" y1="82.485" x2="494.453" y2="-0.00244141" gradientUnits="userSpaceOnUse">
<stop stop-color="#3592DE"/>
<stop offset="0.265" stop-color="#0C616B"/>
<stop offset="1" stop-color="#00237B"/>
</linearGradient>
<linearGradient id="paint6_linear_0_1" x1="600.997" y1="134.438" x2="551.639" y2="75.7808" gradientUnits="userSpaceOnUse">
<stop stop-color="#DE35D3"/>
<stop offset="0.265" stop-color="#E83755"/>
<stop offset="1" stop-color="#560001"/>
</linearGradient>
<linearGradient id="paint7_linear_0_1" x1="692.759" y1="258.096" x2="563.998" y2="129.335" gradientUnits="userSpaceOnUse">
<stop stop-color="#3D35DE"/>
<stop offset="0.265" stop-color="#5137E8"/>
<stop offset="1" stop-color="#793CF8"/>
</linearGradient>
<linearGradient id="paint8_linear_0_1" x1="696.221" y1="132.386" x2="614.02" y2="50.1846" gradientUnits="userSpaceOnUse">
<stop stop-color="#DE8435"/>
<stop offset="0.265" stop-color="#E8376F"/>
<stop offset="1" stop-color="#793CF8"/>
</linearGradient>
<clipPath id="clip0_0_1">
<rect y="168.139" width="90.9198" height="90.9198" rx="45.4599" fill="white"/>
</clipPath>
<clipPath id="clip1_0_1">
<rect width="90.9198" height="90.9198" fill="white" transform="translate(0 168.139)"/>
</clipPath>
<clipPath id="clip2_0_1">
<rect width="90.9198" height="90.9198" fill="white" transform="translate(0 168.139)"/>
</clipPath>
<clipPath id="clip3_0_1">
<rect x="69.7461" y="11.209" width="249.095" height="249.095" rx="124.548" fill="white"/>
</clipPath>
<clipPath id="clip4_0_1">
<rect width="249.095" height="249.095" fill="white" transform="translate(69.7461 11.209)"/>
</clipPath>
<clipPath id="clip5_0_1">
<rect width="249.095" height="247.942" fill="white" transform="translate(69.7461 11.7856)"/>
</clipPath>
<clipPath id="clip6_0_1">
<rect x="298.914" y="168.139" width="90.9198" height="90.9198" rx="45.4599" fill="white"/>
</clipPath>
<clipPath id="clip7_0_1">
<rect width="90.9198" height="90.9198" fill="white" transform="translate(298.914 168.139)"/>
</clipPath>
<clipPath id="clip8_0_1">
<rect width="90.9198" height="90.9198" fill="white" transform="translate(298.914 168.139)"/>
</clipPath>
<clipPath id="clip9_0_1">
<rect x="317.596" y="103.375" width="66.0103" height="66.0103" rx="33.0051" fill="white"/>
</clipPath>
<clipPath id="clip10_0_1">
<rect width="66.0103" height="66.0103" fill="white" transform="translate(317.596 103.375)"/>
</clipPath>
<clipPath id="clip11_0_1">
<rect width="66.0103" height="66.0103" fill="white" transform="translate(317.596 103.375)"/>
</clipPath>
<clipPath id="clip12_0_1">
<rect x="381.115" y="73.483" width="185.576" height="185.576" rx="92.7881" fill="white"/>
</clipPath>
<clipPath id="clip13_0_1">
<rect width="185.576" height="185.576" fill="white" transform="translate(381.115 73.483)"/>
</clipPath>
<clipPath id="clip14_0_1">
<rect width="185.576" height="185.576" fill="white" transform="translate(381.115 73.483)"/>
</clipPath>
<clipPath id="clip15_0_1">
<rect x="494.453" width="90.9198" height="90.9198" rx="45.4599" fill="white"/>
</clipPath>
<clipPath id="clip16_0_1">
<rect width="90.9198" height="90.9198" fill="white" transform="translate(494.453)"/>
</clipPath>
<clipPath id="clip17_0_1">
<rect width="90.9198" height="90.9198" fill="white" transform="translate(494.453)"/>
</clipPath>
<clipPath id="clip18_0_1">
<rect x="550.5" y="74.7285" width="66.0103" height="66.0103" rx="33.0051" fill="white"/>
</clipPath>
<clipPath id="clip19_0_1">
<rect width="66.0103" height="66.0103" fill="white" transform="translate(550.5 74.7285)"/>
</clipPath>
<clipPath id="clip20_0_1">
<rect width="66.0103" height="66.0103" fill="white" transform="translate(550.5 74.7285)"/>
</clipPath>
<clipPath id="clip21_0_1">
<rect x="562.955" y="128.284" width="130.775" height="130.775" rx="65.3876" fill="white"/>
</clipPath>
<clipPath id="clip22_0_1">
<rect width="130.775" height="130.775" fill="white" transform="translate(562.955 128.284)"/>
</clipPath>
<clipPath id="clip23_0_1">
<rect x="614.02" y="49.707" width="82.2015" height="83.447" rx="41.1007" fill="white"/>
</clipPath>
<clipPath id="clip24_0_1">
<rect width="82.2015" height="83.447" fill="white" transform="translate(614.02 49.707)"/>
</clipPath>
<clipPath id="clip25_0_1">
<rect width="82.2015" height="83.447" fill="white" transform="translate(614.02 49.707)"/>
</clipPath>
</defs>
</svg>
